<?xml version="1.0" encoding="UTF-8" standalone="no"?>
<!-- Created with Inkscape (http://www.inkscape.org/) -->

<svg
   width="5.1763082mm"
   height="5.1678414mm"
   viewBox="0 0 5.1763082 5.1678414"
   version="1.1"
   id="svg2145"
   inkscape:version="1.1.1 (3bf5ae0d25, 2021-09-20)"
   sodipodi:docname="linkedIn.svg"
   xmlns:inkscape="http://www.inkscape.org/namespaces/inkscape"
   xmlns:sodipodi="http://sodipodi.sourceforge.net/DTD/sodipodi-0.dtd"
   xmlns="http://www.w3.org/2000/svg"
   xmlns:svg="http://www.w3.org/2000/svg">
  <sodipodi:namedview
     id="namedview2147"
     pagecolor="#505050"
     bordercolor="#ffffff"
     borderopacity="1"
     inkscape:pageshadow="0"
     inkscape:pageopacity="0"
     inkscape:pagecheckerboard="1"
     inkscape:document-units="mm"
     showgrid="false"
     inkscape:zoom="10.248373"
     inkscape:cx="32.492964"
     inkscape:cy="19.661658"
     inkscape:window-width="977"
     inkscape:window-height="983"
     inkscape:window-x="1117"
     inkscape:window-y="4"
     inkscape:window-maximized="0"
     inkscape:current-layer="layer1" />
  <defs
     id="defs2142">
    <clipPath
       clipPathUnits="userSpaceOnUse"
       id="clipPath844">
      <path
         d="M 0,595.28 H 841.89 V 0 H 0 Z"
         id="path842" />
    </clipPath>
    <clipPath
       clipPathUnits="userSpaceOnUse"
       id="clipPath870">
      <path
         d="M 0,595.28 H 841.89 V 0 H 0 Z"
         id="path868" />
    </clipPath>
    <clipPath
       clipPathUnits="userSpaceOnUse"
       id="clipPath1168">
      <path
         d="M 0,595.28 H 841.89 V 0 H 0 Z"
         id="path1166" />
    </clipPath>
  </defs>
  <g
     inkscape:label="Capa 1"
     inkscape:groupmode="layer"
     id="layer1"
     transform="translate(-76.317286,-108.54134)">
    <g
       id="g1162"
       transform="matrix(0.35277777,0,0,-0.35277777,61.263835,253.5173)">
      <g
         id="g1164"
         clip-path="url(#clipPath1168)">
        <g
           id="g1170"
           transform="translate(57.0942,396.5565)">
          <path
             d="m 0,0 h -2.935 v 4.596 c 0,1.096 -0.02,2.506 -1.527,2.506 -1.528,0 -1.763,-1.194 -1.763,-2.427 V 0 h -2.934 v 9.451 h 2.817 V 8.159 h 0.039 c 0.392,0.744 1.351,1.527 2.779,1.527 C -0.549,9.686 0,7.728 0,5.184 Z m -12.47,10.743 c -0.941,0 -1.703,0.763 -1.703,1.703 0,0.94 0.762,1.703 1.703,1.703 0.939,0 1.702,-0.763 1.702,-1.703 0,-0.94 -0.763,-1.703 -1.702,-1.703 z M -11.002,0 h -2.937 v 9.451 h 2.937 z"
             style="fill:none;stroke:#100f0d;stroke-width:0.5;stroke-linecap:butt;stroke-linejoin:miter;stroke-miterlimit:10;stroke-dasharray:none;stroke-opacity:1"
             id="path1172" />
        </g>
      </g>
    </g>
  </g>
</svg>
